<?xml version="1.0" encoding="iso-8859-1"?>
<!-- Generator: Adobe Illustrator 19.0.0, SVG Export Plug-In . SVG Version: 6.00 Build 0)  -->
<svg version="1.1" id="Capa_1" xmlns="http://www.w3.org/2000/svg" xmlns:xlink="http://www.w3.org/1999/xlink" x="0px" y="0px"
	 viewBox="0 0 512 512" style="enable-background:new 0 0 512 512;" xml:space="preserve">
<linearGradient id="SVGID_1_" gradientUnits="userSpaceOnUse" x1="0" y1="258" x2="512" y2="258" gradientTransform="matrix(1 0 0 -1 0 514)">
	<stop  offset="0" style="stop-color:#80D8FF"/>
	<stop  offset="1" style="stop-color:#EA80FC"/>
</linearGradient>
<path style="fill:url(#SVGID_1_);" d="M492,0H20C8.954,0,0,8.954,0,20v396c0,11.046,8.954,20,20,20h176.977l42.113,66.68
	c3.665,5.802,10.048,9.32,16.91,9.32s13.245-3.518,16.91-9.32L315.023,436H492c11.046,0,20-8.954,20-20V20
	C512,8.954,503.046,0,492,0z M472,396H304c-6.862,0-13.245,3.518-16.91,9.32L256,454.546l-31.09-49.226
	c-3.665-5.802-10.048-9.32-16.91-9.32H40V40h432V396z M231,218c0-13.807,11.193-25,25-25s25,11.193,25,25s-11.193,25-25,25
	S231,231.807,231,218z M131,218c0-13.807,11.193-25,25-25s25,11.193,25,25s-11.193,25-25,25S131,231.807,131,218z M331,218
	c0-13.807,11.193-25,25-25s25,11.193,25,25s-11.193,25-25,25S331,231.807,331,218z"/>
<g>
</g>
<g>
</g>
<g>
</g>
<g>
</g>
<g>
</g>
<g>
</g>
<g>
</g>
<g>
</g>
<g>
</g>
<g>
</g>
<g>
</g>
<g>
</g>
<g>
</g>
<g>
</g>
<g>
</g>
</svg>
